HIERARCHY
ROOT Hips
{
  OFFSET -24.5077 92.419 -73.7383
  CHANNELS 6 Xposition Yposition Zposition Zrotation Xrotation Yrotation
  JOINT LeftUpLeg
  {
    OFFSET 9.63379 -0.250344 0
    CHANNELS 6 Xposition Yposition Zposition Zrotation Xrotation Yrotation
    JOINT LeftLeg
    {
      OFFSET 0 -40.4779 -1.71313
      CHANNELS 6 Xposition Yposition Zposition Zrotation Xrotation Yrotation
      JOINT LeftFoot
      {
        OFFSET 0.0126047 -40.4416 -0.864524
        CHANNELS 6 Xposition Yposition Zposition Zrotation Xrotation Yrotation
        JOINT LeftToeBase
        {
          OFFSET -0.183287 -12.1867 8.28226
          CHANNELS 6 Xposition Yposition Zposition Zrotation Xrotation Yrotation
          End Site
          {
            OFFSET 0 0 9.15615
          }
        }
      }
    }
  }
  JOINT RightUpLeg
  {
    OFFSET -9.63379 -0.250344 0
    CHANNELS 6 Xposition Yposition Zposition Zrotation Xrotation Yrotation
    JOINT RightLeg
    {
      OFFSET 0 -40.478 -1.71313
      CHANNELS 6 Xposition Yposition Zposition Zrotation Xrotation Yrotation
      JOINT RightFoot
      {
        OFFSET -0.0126047 -40.4414 -0.864524
        CHANNELS 6 Xposition Yposition Zposition Zrotation Xrotation Yrotation
        JOINT RightToeBase
        {
          OFFSET 0.183287 -12.1867 8.28226
          CHANNELS 6 Xposition Yposition Zposition Zrotation Xrotation Yrotation
          End Site
          {
            OFFSET 0.00319481 0 9.156
          }
        }
      }
    }
  }
  JOINT Spine
  {
    OFFSET 0 5.60909 -1.89659
    CHANNELS 6 Xposition Yposition Zposition Zrotation Xrotation Yrotation
    JOINT Spine1
    {
      OFFSET 0 6.56349 1.09934
      CHANNELS 6 Xposition Yposition Zposition Zrotation Xrotation Yrotation
      JOINT Spine2
      {
        OFFSET 0 7.57662 1.04304
        CHANNELS 6 Xposition Yposition Zposition Zrotation Xrotation Yrotation
        JOINT Spine3
        {
          OFFSET 0 8.29213 0.399731
          CHANNELS 6 Xposition Yposition Zposition Zrotation Xrotation Yrotation
          JOINT Spine4
          {
            OFFSET 0 8.9581 -0.526302
            CHANNELS 6 Xposition Yposition Zposition Zrotation Xrotation Yrotation
            JOINT Neck
            {
              OFFSET 0 18.4163 -4.35419
              CHANNELS 6 Xposition Yposition Zposition Zrotation Xrotation Yrotation
              JOINT Head
              {
                OFFSET 0 8.97127 1.78542
                CHANNELS 6 Xposition Yposition Zposition Zrotation Xrotation Yrotation
                End Site
                {
                  OFFSET 0 19.3737 0.971395
                }
              }
            }
            JOINT LeftShoulder
            {
              OFFSET 6.14423 15.3316 -3.79324
              CHANNELS 6 Xposition Yposition Zposition Zrotation Xrotation Yrotation
              JOINT LeftArm
              {
                OFFSET 9.01906 -1.11411 -1.79347
                CHANNELS 6 Xposition Yposition Zposition Zrotation Xrotation Yrotation
                JOINT LeftForeArm
                {
                  OFFSET 27.687 0 0
                  CHANNELS 6 Xposition Yposition Zposition Zrotation Xrotation Yrotation
                  JOINT LeftHand
                  {
                    OFFSET 27.8738 0 0
                    CHANNELS 6 Xposition Yposition Zposition Zrotation Xrotation Yrotation
                    End Site
                    {
                      OFFSET 5 0 0
                    }
                  }
                }
              }
            }
            JOINT RightShoulder
            {
              OFFSET -6.14423 15.3316 -3.79324
              CHANNELS 6 Xposition Yposition Zposition Zrotation Xrotation Yrotation
              JOINT RightArm
              {
                OFFSET -9.01884 -1.11411 -1.79347
                CHANNELS 6 Xposition Yposition Zposition Zrotation Xrotation Yrotation
                JOINT RightForeArm
                {
                  OFFSET -27.0381 0.00109999 0
                  CHANNELS 6 Xposition Yposition Zposition Zrotation Xrotation Yrotation
                  JOINT RightHand
                  {
                    OFFSET -28.5227 0 0
                    CHANNELS 6 Xposition Yposition Zposition Zrotation Xrotation Yrotation
                    End Site
                    {
                      OFFSET -5 0 0
                    }
                  }
                }
              }
            }
          }
        }
      }
    }
  }
}
MOTION
Frames:	8
Frame Time:	0.00833333
-25.0544 93.4481 -28.7349 -0.087145 -0.633293 -0.0665769 9.63379 -0.250344 -7.15256e-007 5.27303 -1.31501 10.9341 0 -40.4779 -1.71313 2.95967 2.84457 -0.0815854 0.0126047 -40.4416 -0.864524 0.387561 -0.0668587 -0.00806632 -0.183287 -12.1867 8.28226 3.86144e-012 3.29492e-011 -3.25514e-011 -9.63379 -0.250344 -7.15256e-007 -5.3511 -0.778523 -0.0854979 0 -40.478 -1.71313 0.145699 1.79539 -0.49643 -0.0126047 -40.4414 -0.864524 -0.311135 -0.718193 0.00391795 0.183287 -12.1867 8.28226 6.4448e-013 1.17236e-011 7.15525e-013 -2.64698e-023 5.60909 -1.89659 0.0108648 0.0385771 -0.0193953 0 6.56349 1.09934 -0.0588958 0.0820583 -0.0464952 0 7.57662 1.04304 -0.0598287 0.0820587 -0.0403066 0 8.29213 0.399731 -0.0532202 0.0820596 -0.0469387 0 8.9581 -0.526302 -0.057179 0.08206 -0.0468481 0 18.4163 -4.35419 -0.503478 -1.32676 0.290546 1.05879e-022 8.97127 1.78542 -0.0545748 0.486386 0.15311 6.14423 15.3316 -3.79324 -4.56418 0.419717 0.181846 9.01906 -1.11411 -1.79347 0.946109 -8.03754 0.399538 27.687 0 0 -1.96109 8.95956 -1.36072 27.8738 0 0 0.32788 -0.179263 0.867825 -6.14423 15.3316 -3.79324 0.71519 -0.00966795 -3.61001 -9.01884 -1.11411 -1.79347 0.835779 0.794913 0.845343 -27.0381 0.00109999 5.96046e-008 -0.682504 0.710894 0.224162 -28.5227 0 0 -0.363373 1.29597 -0.49123 
-25.0547 93.4496 -28.7414 -0.0897944 -0.638333 -0.0646135 9.63379 -0.250344 -7.15256e-007 5.27701 -1.31436 10.9375 0 -40.4779 -1.71313 2.9581 2.84426 -0.0815854 0.0126047 -40.4416 -0.864524 0.387561 -0.0666336 -0.00806632 -0.183287 -12.1867 8.28226 3.86144e-012 3.29492e-011 -3.25514e-011 -9.63379 -0.250344 -7.15256e-007 -5.3492 -0.784885 -0.0879749 0 -40.478 -1.71313 0.150319 1.80947 -0.500157 -0.0126047 -40.4414 -0.864524 -0.311134 -0.721529 0.00391795 0.183287 -12.1867 8.28226 6.4448e-013 1.17236e-011 7.15525e-013 -2.64698e-023 5.60909 -1.89659 0.010865 0.0390936 -0.0193953 0 6.56349 1.09934 -0.0591722 0.0837876 -0.0466973 0 7.57662 1.04304 -0.0601337 0.0837881 -0.0417752 0 8.29213 0.399731 -0.0532186 0.0837891 -0.0470805 0 8.9581 -0.526302 -0.0572792 0.0837896 -0.0469911 0 18.4163 -4.35419 -0.501149 -1.34477 0.289756 1.05879e-022 8.97127 1.78542 -0.0576443 0.478929 0.153759 6.14423 15.3316 -3.79324 -4.57118 0.419827 0.18304 9.01906 -1.11411 -1.79347 0.960315 -8.02842 0.412788 27.687 0 0 -1.9626 8.95338 -1.36852 27.8738 0 0 0.341901 -0.180813 0.876652 -6.14423 15.3316 -3.79324 0.708703 -0.010569 -3.62004 -9.01884 -1.11411 -1.79347 0.835799 0.776597 0.842006 -27.0381 0.00109999 5.96046e-008 -0.67803 0.695452 0.23534 -28.5227 0 0 -0.380502 1.29137 -0.490094 
-25.0552 93.4495 -28.7477 -0.0891172 -0.639983 -0.0614789 9.63379 -0.250344 -7.15256e-007 5.27849 -1.32003 10.9391 0 -40.4779 -1.71313 2.95658 2.85058 -0.0815859 0.0126047 -40.4416 -0.864524 0.387561 -0.0664022 -0.00806632 -0.183287 -12.1867 8.28226 3.86144e-012 3.29492e-011 -3.25514e-011 -9.63379 -0.250344 -7.15256e-007 -5.35157 -0.781606 -0.093047 0 -40.478 -1.71313 0.149403 1.80145 -0.499446 -0.0126047 -40.4414 -0.864524 -0.311135 -0.710994 0.00391794 0.183287 -12.1867 8.28226 6.4448e-013 1.17236e-011 7.15525e-013 -2.64698e-023 5.60909 -1.89659 0.0108651 0.0396139 -0.0193953 0 6.56349 1.09934 -0.0594594 0.0847943 -0.0470591 0 7.57662 1.04304 -0.0604388 0.084795 -0.0433446 0 8.29213 0.399731 -0.0532173 0.0847961 -0.0473531 0 8.9581 -0.526302 -0.0574042 0.0847966 -0.0471681 0 18.4163 -4.35419 -0.497847 -1.36246 0.289019 1.05879e-022 8.97127 1.78542 -0.0671106 0.479014 0.15619 6.14423 15.3316 -3.79324 -4.56542 0.419934 0.192553 9.01906 -1.11411 -1.79347 0.961325 -8.02654 0.418339 27.687 0 0 -1.9623 8.95122 -1.36907 27.8738 0 0 0.350816 -0.182292 0.884538 -6.14423 15.3316 -3.79324 0.699183 -0.0119125 -3.63562 -9.01884 -1.11411 -1.79347 0.841204 0.77836 0.852836 -27.0381 0.00109999 5.96046e-008 -0.677224 0.682658 0.239449 -28.5227 0 0 -0.365459 1.30145 -0.474378 
-25.0557 93.4486 -28.754 -0.0862574 -0.6396 -0.0572588 9.63379 -0.250344 -7.15256e-007 5.27831 -1.3297 10.9397 0 -40.4779 -1.71313 2.95514 2.86122 -0.0815866 0.0126047 -40.4416 -0.864524 0.387561 -0.0661667 -0.00806631 -0.183287 -12.1867 8.28226 3.86144e-012 3.29492e-011 -3.25514e-011 -9.63379 -0.250344 -7.15256e-007 -5.35675 -0.771789 -0.100584 0 -40.478 -1.71313 0.144944 1.77897 -0.495912 -0.0126047 -40.4414 -0.864524 -0.311137 -0.691122 0.00391792 0.183287 -12.1867 8.28226 6.4448e-013 1.17236e-011 7.15525e-013 -2.64698e-023 5.60909 -1.89659 0.0108653 0.0401372 -0.0193953 0 6.56349 1.09934 -0.059756 0.0853132 -0.0473915 0 7.57662 1.04304 -0.0607437 0.0853141 -0.0451146 0 8.29213 0.399731 -0.0532166 0.0853153 -0.0475616 0 8.9581 -0.526302 -0.0575573 0.0853158 -0.0471689 0 18.4163 -4.35419 -0.494692 -1.37871 0.289095 1.05879e-022 8.97127 1.78542 -0.0807581 0.482028 0.160315 6.14423 15.3316 -3.79324 -4.55198 0.420041 0.207721 9.01906 -1.11411 -1.79347 0.95472 -8.02866 0.419699 27.687 0 0 -1.96102 8.95158 -1.36531 27.8738 0 0 0.357429 -0.183592 0.89219 -6.14423 15.3316 -3.79324 0.687682 -0.0134311 -3.65359 -9.01884 -1.11411 -1.79347 0.849356 0.789674 0.872059 -27.0381 0.00109999 5.96046e-008 -0.677354 0.673679 0.239516 -28.5227 0 0 -0.331034 1.32069 -0.449051 
-25.0556 93.4475 -28.7614 -0.0825124 -0.639765 -0.0557481 9.63379 -0.250344 -7.15256e-007 5.27655 -1.33905 10.9393 0 -40.4779 -1.71313 2.95398 2.87179 -0.0815874 0.0126047 -40.4416 -0.864524 0.387561 -0.0659295 -0.00806631 -0.183287 -12.1867 8.28226 3.86144e-012 3.29492e-011 -3.25514e-011 -9.63379 -0.250344 -7.15256e-007 -5.36359 -0.761212 -0.100318 0 -40.478 -1.71313 0.140828 1.75403 -0.49269 -0.0126047 -40.4414 -0.864524 -0.311138 -0.669102 0.0039179 0.183287 -12.1867 8.28226 6.4448e-013 1.17236e-011 7.15525e-013 -2.64698e-023 5.60909 -1.89659 0.0108655 0.0406623 -0.0193953 0 6.56349 1.09934 -0.0600615 0.0855821 -0.0471659 0 7.57662 1.04304 -0.0610497 0.0855832 -0.0462342 0 8.29213 0.399731 -0.0532169 0.0855843 -0.0472148 0 8.9581 -0.526302 -0.0577423 0.0855848 -0.0466176 0 18.4163 -4.35419 -0.493994 -1.39424 0.290466 1.05879e-022 8.97127 1.78542 -0.091841 0.486046 0.164425 6.14423 15.3316 -3.79324 -4.53757 0.420145 0.22298 9.01906 -1.11411 -1.79347 0.946594 -8.03192 0.420145 27.687 0 0 -1.9597 8.95049 -1.35916 27.8738 0 0 0.359317 -0.184607 0.899178 -6.14423 15.3316 -3.79324 0.676851 -0.0149859 -3.67113 -9.01884 -1.11411 -1.79347 0.856096 0.803617 0.892125 -27.0381 0.00109999 5.96046e-008 -0.679094 0.669318 0.237504 -28.5227 0 0 -0.292307 1.34112 -0.423925 
-25.0543 93.4468 -28.7709 -0.0791795 -0.643059 -0.0607416 9.63379 -0.250344 -7.15256e-007 5.27328 -1.34376 10.9383 0 -40.4779 -1.71313 2.9533 2.87794 -0.0815878 0.0126047 -40.4416 -0.864524 0.387561 -0.065693 -0.00806631 -0.183287 -12.1867 8.28226 3.86144e-012 3.29492e-011 -3.25514e-011 -9.63379 -0.250344 -7.15256e-007 -5.3709 -0.755657 -0.0819836 0 -40.478 -1.71313 0.140933 1.73868 -0.492916 -0.0126047 -40.4414 -0.864524 -0.311139 -0.652122 0.00391789 0.183287 -12.1867 8.28226 6.4448e-013 1.17236e-011 7.15525e-013 -2.64698e-023 5.60909 -1.89659 0.0108657 0.0411884 -0.0193953 0 6.56349 1.09934 -0.0603751 0.0858387 -0.0458538 0 7.57662 1.04304 -0.0613581 0.0858399 -0.0458521 0 8.29213 0.399731 -0.0532188 0.085841 -0.0458217 0 8.9581 -0.526302 -0.0579626 0.0858415 -0.0451379 0 18.4163 -4.35419 -0.49806 -1.40976 0.293619 1.05879e-022 8.97127 1.78542 -0.0936126 0.489139 0.166811 6.14423 15.3316 -3.79324 -4.52884 0.420248 0.232762 9.01906 -1.11411 -1.79347 0.94304 -8.0335 0.422953 27.687 0 0 -1.95925 8.94394 -1.35255 27.8738 0 0 0.354059 -0.18523 0.905074 -6.14423 15.3316 -3.79324 0.669344 -0.0164385 -3.68543 -9.01884 -1.11411 -1.79347 0.85728 0.813263 0.905483 -27.0381 0.00109999 5.96046e-008 -0.683116 0.670377 0.235377 -28.5227 0 0 -0.264332 1.35478 -0.408814 
-25.0507 93.447 -28.7848 -0.0759396 -0.652556 -0.0786963 9.63379 -0.250344 -7.15256e-007 5.26662 -1.34024 10.9359 0 -40.4779 -1.71313 2.95308 2.87732 -0.0815878 0.0126047 -40.4416 -0.864524 0.387561 -0.0654594 -0.00806631 -0.183287 -12.1867 8.28226 3.86144e-012 3.29492e-011 -3.25514e-011 -9.63379 -0.250344 -7.15256e-007 -5.38 -0.756864 -0.0250812 0 -40.478 -1.71313 0.14694 1.7379 -0.497969 -0.0126047 -40.4414 -0.864524 -0.31114 -0.640926 0.00391788 0.183287 -12.1867 8.28226 6.4448e-013 1.17236e-011 7.15525e-013 -2.64698e-023 5.60909 -1.89659 0.0108659 0.0417144 -0.0193953 0 6.56349 1.09934 -0.0606973 0.0861659 -0.0422802 0 7.57662 1.04304 -0.0616707 0.086167 -0.0426199 0 8.29213 0.399731 -0.0532239 0.0861681 -0.0422238 0 8.9581 -0.526302 -0.0586326 0.0861686 -0.0416531 0 18.4163 -4.35419 -0.511081 -1.42656 0.300003 1.05879e-022 8.97127 1.78542 -0.0796184 0.492168 0.166243 6.14423 15.3316 -3.79324 -4.52905 0.42035 0.234325 9.01906 -1.11411 -1.79347 0.946401 -8.03175 0.430002 27.687 0 0 -1.96058 8.92651 -1.34445 27.8738 0 0 0.33823 -0.185546 0.909968 -6.14423 15.3316 -3.79324 0.667426 -0.0178996 -3.69377 -9.01884 -1.11411 -1.79347 0.846883 0.815022 0.907969 -27.0381 0.00109999 5.96046e-008 -0.689221 0.686245 0.23304 -28.5227 0 0 -0.2474 1.36011 -0.407786 
-25.0453 93.4474 -28.8019 -0.0723325 -0.666083 -0.105773 9.63379 -0.250344 -7.15256e-007 5.25716 -1.33162 10.9323 0 -40.4779 -1.71313 2.95312 2.87267 -0.0815874 0.0126047 -40.4416 -0.864524 0.387561 -0.0652312 -0.00806631 -0.183287 -12.1867 8.28226 3.86144e-012 3.29492e-011 -3.25514e-011 -9.63379 -0.250344 -7.15256e-007 -5.39098 -0.761682 0.0589936 0 -40.478 -1.71313 0.156565 1.7447 -0.505994 -0.0126047 -40.4414 -0.864524 -0.311141 -0.632071 0.00391788 0.183287 -12.1867 8.28226 6.4448e-013 1.17236e-011 7.15525e-013 -2.64698e-023 5.60909 -1.89659 0.010866 0.0422396 -0.0193953 0 6.56349 1.09934 -0.0610259 0.0864881 -0.0370719 0 7.57662 1.04304 -0.0619867 0.0864893 -0.0373653 0 8.29213 0.399731 -0.0532315 0.0864903 -0.0370256 0 8.9581 -0.526302 -0.0598594 0.0864908 -0.0366892 0 18.4163 -4.35419 -0.530629 -1.44391 0.30892 1.05879e-022 8.97127 1.78542 -0.055008 0.495703 0.163889 6.14423 15.3316 -3.79324 -4.53415 0.42045 0.231057 9.01906 -1.11411 -1.79347 0.953187 -8.02847 0.439208 27.687 0 0 -1.96296 8.90177 -1.33436 27.8738 0 0 0.31405 -0.185721 0.91402 -6.14423 15.3316 -3.79324 0.669156 -0.0195079 -3.69829 -9.01884 -1.11411 -1.79347 0.82876 0.813169 0.904326 -27.0381 0.00109999 5.96046e-008 -0.697174 0.713435 0.229651 -28.5227 0 0 -0.234713 1.36117 -0.415123 
